<svg width="14" height="15" viewBox="0 0 14 15" fill="none" xmlns="http://www.w3.org/2000/svg">
<rect width="14" height="14" transform="translate(0 0.5)" fill="url(#paint0_linear_947_14565)"/>
<path d="M6.83209 1.75946C6.9109 1.63768 7.0891 1.63768 7.16791 1.75946L8.20959 3.36915C8.26103 3.44863 8.36114 3.48116 8.44947 3.44709L10.2384 2.75711C10.3737 2.70491 10.5179 2.80965 10.51 2.9545L10.4066 4.86905C10.4015 4.96358 10.4634 5.04875 10.5549 5.07311L12.4077 5.56639C12.5479 5.60371 12.6029 5.77318 12.5115 5.88577L11.3025 7.37389C11.2428 7.44737 11.2428 7.55263 11.3025 7.62611L12.5115 9.11423C12.6029 9.22682 12.5479 9.39629 12.4077 9.43361L10.5549 9.9269C10.4634 9.95125 10.4015 10.0364 10.4066 10.1309L10.51 12.0455C10.5179 12.1904 10.3737 12.2951 10.2384 12.2429L8.44947 11.5529C8.36114 11.5188 8.26103 11.5514 8.20959 11.6309L7.16791 13.2405C7.0891 13.3623 6.9109 13.3623 6.83209 13.2405L5.79041 11.6309C5.73897 11.5514 5.63886 11.5188 5.55053 11.5529L3.76164 12.2429C3.62629 12.2951 3.48213 12.1904 3.48996 12.0455L3.59337 10.1309C3.59847 10.0364 3.5366 9.95125 3.44511 9.9269L1.59231 9.43361C1.45213 9.39629 1.39707 9.22682 1.48854 9.11423L2.69754 7.62611C2.75724 7.55263 2.75724 7.44737 2.69754 7.37389L1.48854 5.88577C1.39707 5.77318 1.45213 5.60371 1.59231 5.56639L3.44511 5.07311C3.5366 5.04875 3.59847 4.96359 3.59337 4.86905L3.48996 2.9545C3.48213 2.80965 3.62629 2.70491 3.76164 2.75711L5.55053 3.44709C5.63886 3.48116 5.73897 3.44863 5.79041 3.36915L6.83209 1.75946Z" fill="#FEBF44"/>
<circle cx="7" cy="7.5" r="3" fill="#FFE891"/>
<path d="M5 6.5C5 7 6 7 6 6.5" stroke="black" stroke-width="0.3"/>
<path d="M8 6.5C8 7 9 7 9 6.5" stroke="black" stroke-width="0.3"/>
<defs>
<linearGradient id="paint0_linear_947_14565" x1="7" y1="0" x2="7" y2="14" gradientUnits="userSpaceOnUse">
<stop stop-color="#1D1B20" stop-opacity="0.6"/>
<stop offset="0.360997" stop-color="#1D1B20"/>
<stop offset="1" stop-color="#1D1B20"/>
</linearGradient>
</defs>
</svg>
